<svg width="0" height="0" class="hidden">

  <symbol xmlns="http://www.w3.org/2000/svg" viewBox="0 0 16 16" id="fb">
    <path d="M13.7333 0.44165H1.83333C0.869998 0.44165 0.133331 1.17832 0.133331 2.14165V14.0417C0.133331 15.005 0.869998 15.7417 1.83333 15.7417H7.78333V9.79165H6.08333V7.69498H7.78333V5.93832C7.78333 4.12498 8.80333 2.82165 10.9567 2.82165H12.4867V5.03165H11.4667C10.6167 5.03165 10.2767 5.65498 10.2767 6.27832V7.69498H12.4867L12.0333 9.79165H10.3333V15.7417H13.7333C14.6967 15.7417 15.4333 15.005 15.4333 14.0417V2.14165C15.4333 1.17832 14.6967 0.44165 13.7333 0.44165Z" fill="currentColor"></path>
  </symbol>
  <symbol xmlns="http://www.w3.org/2000/svg" viewBox="0 0 16 16" id="insta">
    <path d="M14.1667 0.00830078H2.26667C1.30333 0.00830078 0.566666 0.744967 0.566666 1.7083V13.6083C0.566666 14.5716 1.30333 15.3083 2.26667 15.3083H14.1667C15.13 15.3083 15.8667 14.5716 15.8667 13.6083V1.7083C15.8667 0.744967 15.13 0.00830078 14.1667 0.00830078ZM8.21667 12.3616C10.8233 12.3616 12.92 10.265 12.92 7.6583C12.92 7.37497 12.8633 7.09163 12.8067 6.8083H14.1667V12.9283C14.1667 13.2683 13.8833 13.495 13.6 13.495H2.83333C2.49333 13.495 2.26667 13.2116 2.26667 12.9283V6.8083H3.57C3.51333 7.09163 3.45667 7.37497 3.45667 7.6583C3.51333 10.265 5.61 12.3616 8.21667 12.3616ZM5.27 7.6583C5.27 6.01497 6.57333 4.71163 8.21667 4.71163C9.86 4.71163 11.1633 6.01497 11.1633 7.6583C11.1633 9.30163 9.86 10.605 8.21667 10.605C6.57333 10.605 5.27 9.24497 5.27 7.6583ZM13.6 4.2583H12.24C11.9 4.2583 11.6733 3.97497 11.6733 3.69163V2.27497C11.6733 1.93497 11.9567 1.7083 12.24 1.7083H13.6C13.94 1.7083 14.1667 1.99163 14.1667 2.27497V3.63497C14.1667 3.97497 13.8833 4.2583 13.6 4.2583Z" fill="currentColor"></path>
  </symbol>
  <symbol xmlns="http://www.w3.org/2000/svg" viewBox="0 0 17 14" id="mail">
    <path fill-rule="evenodd" clip-rule="evenodd" d="M16.3767 0.934935C16.2633 0.481602 15.81 0.141602 15.3 0.141602H1.7C1.19 0.141602 0.736666 0.481602 0.623332 0.934935L8.5 8.07493L16.3767 0.934935ZM12.58 6.65827L16.4333 10.1149V3.2016L12.58 6.65827ZM8.5 10.3416L5.66667 7.7916L0.623332 12.3249C0.736666 12.8349 1.19 13.1749 1.7 13.1749H15.3C15.81 13.1749 16.2633 12.8349 16.3767 12.3816L11.3333 7.84827L8.5 10.3416ZM0.566666 3.2016V10.1149L4.42 6.65827L0.566666 3.2016Z" fill="currentColor"></path>
  </symbol>
  <symbol xmlns="http://www.w3.org/2000/svg" viewBox="0 0 17 13" id="twitter">
    <path d="M14.8467 3.31494C14.8467 3.42827 14.8467 3.59827 14.8467 3.7116C14.8467 7.9616 11.6167 12.8349 5.72334 12.8349C3.91 12.8349 2.21 12.3249 0.793335 11.4183C1.02 11.4183 1.30334 11.4749 1.58667 11.4749C3.11667 11.4749 4.47667 10.9649 5.55334 10.1149C4.13667 10.1149 2.94667 9.1516 2.55 7.90494C2.72 7.9616 2.94667 7.9616 3.17334 7.9616C3.45667 7.9616 3.74 7.90493 4.02334 7.84827C2.55 7.50827 1.41667 6.20494 1.41667 4.67493C1.41667 4.67493 1.41667 4.67493 1.41667 4.61827C1.87 4.84493 2.32334 5.01494 2.89 5.01494C2.04 4.44827 1.47333 3.48494 1.47333 2.3516C1.47333 1.78493 1.64334 1.21827 1.92667 0.764935C3.51334 2.6916 5.89334 3.99493 8.55667 4.10827C8.5 3.8816 8.5 3.65493 8.5 3.3716C8.5 1.61493 9.91667 0.141602 11.73 0.141602C12.6367 0.141602 13.4867 0.538268 14.0533 1.1616C14.79 0.991602 15.47 0.764935 16.0933 0.368268C15.8667 1.10493 15.3567 1.72827 14.6767 2.12493C15.2433 2.06827 15.8667 1.89827 16.4333 1.6716C15.98 2.29493 15.47 2.8616 14.8467 3.31494Z" fill="currentColor"></path>
  </symbol>
   <symbol fill="currentColor" version="1.1" xmlns="http://www.w3.org/2000/svg" id="burger-nav" viewBox="0 0 32 32">
    <title>burger-nav</title>
    <path d="M0 8.889v-3.556h32v3.556h-32zM0 17.777h32v-3.555h-32v3.555zM0 26.667h32v-3.556h-32v3.556z"></path>
  </symbol>
  <title>Feature<title/>
  <symbol xmlns="http://www.w3.org/2000/svg" viewBox="0 0 100 100" id="video">
    <path fill-rule="evenodd" clip-rule="evenodd" d="M66.6667 42.6666V36.6666C66.6667 31 62.3333 26.6666 56.6667 26.6666H20C14.3333 26.6666 10 31 10 36.6666V63.3333C10 69 14.3333 73.3333 20 73.3333H56.6667C62.3333 73.3333 66.6667 69 66.6667 63.3333V57.3333L90 70V30L66.6667 42.6666ZM60 63.3333C60 65.3333 58.6667 66.6666 56.6667 66.6666H20C18 66.6666 16.6667 65.3333 16.6667 63.3333V36.6666C16.6667 34.6666 18 33.3333 20 33.3333H56.6667C58.6667 33.3333 60 34.6666 60 36.6666V63.3333ZM83.3333 58.6666L67.3333 50L83.3333 41.3333V58.6666Z" fill="currentColor"></path>
  </symbol>
  <symbol xmlns="http://www.w3.org/2000/svg" viewBox="0 0 100 100" id="window">
    <path fill-rule="evenodd" clip-rule="evenodd" d="M76.6666 13.3333H23.3333C17.6666 13.3333 13.3333 17.6666 13.3333 23.3333V76.6666C13.3333 82.3333 17.6666 86.6666 23.3333 86.6666H76.6666C82.3333 86.6666 86.6666 82.3333 86.6666 76.6666V23.3333C86.6666 17.6666 82.3333 13.3333 76.6666 13.3333ZM36.6666 80H23.3333C21.3333 80 20 78.6666 20 76.6666V40H36.6666V80ZM80 76.6666C80 78.6666 78.6666 80 76.6666 80H43.3333V40H80V76.6666ZM80 33.3333H20V23.3333C20 21.3333 21.3333 20 23.3333 20H76.6666C78.6666 20 80 21.3333 80 23.3333V33.3333Z" fill="currentColor"></path>
  </symbol>
  <symbol xmlns="http://www.w3.org/2000/svg" viewBox="0 0 100 100" id="cloud">
    <path fill-rule="evenodd" clip-rule="evenodd" d="M60 20C47 20 36 28.3333 31.6667 40H30C19 40 10 49 10 60C10 71 19 80 30 80H60C76.6667 80 90 66.6667 90 50C90 33.3333 76.6667 20 60 20ZM60 73.3333H30C22.6667 73.3333 16.6667 67.3333 16.6667 60C16.6667 52.6667 22.6667 46.6667 30 46.6667H37C38.6667 35.3333 48.3333 26.6667 60 26.6667C73 26.6667 83.3333 37 83.3333 50C83.3333 63 73 73.3333 60 73.3333Z" fill="currentColor"></path>
  </symbol>
  <symbol xmlns="http://www.w3.org/2000/svg" viewBox="0 0 100 100" id="setting">
    <path fill-rule="evenodd" clip-rule="evenodd" d="M50 36.6667C42.6667 36.6667 36.6667 42.6667 36.6667 50C36.6667 57.3333 42.6667 63.3333 50 63.3333C57.3333 63.3333 63.3333 57.3333 63.3333 50C63.3333 42.6667 57.3333 36.6667 50 36.6667ZM50 56.6667C46.3333 56.6667 43.3333 53.6667 43.3333 50C43.3333 46.3333 46.3333 43.3333 50 43.3333C53.6667 43.3333 56.6667 46.3333 56.6667 50C56.6667 53.6667 53.6667 56.6667 50 56.6667ZM80 60C85.6667 60 90 55.6667 90 50C90 44.3333 85.6667 40 80 40H78.3333C78 39 77.6667 38 77 37L78.3333 35.6667C82.3333 31.6667 82.3333 25.3333 78.3333 21.6667C74.3333 17.6667 68 17.6667 64.3333 21.6667L63 23C62 22.6667 61 22 60 21.6667V20C60 14.3333 55.6667 10 50 10C44.3333 10 40 14.3333 40 20V21.6667C39 22 38 22.3333 37 23L35.6667 21.6667C31.6667 17.6667 25.3333 17.6667 21.6667 21.6667C17.6667 25.6667 17.6667 32 21.6667 35.6667L23 37C22.6667 38 22 39 21.6667 40H20C14.3333 40 10 44.3333 10 50C10 55.6667 14.3333 60 20 60H21.6667C22 61 22.3333 62 23 63L21.6667 64.3333C17.6667 68.3333 17.6667 74.6667 21.6667 78.3333C25.6667 82.3333 32 82.3333 35.6667 78.3333L37 77C38 77.3333 39 78 40 78.3333V80C40 85.6667 44.3333 90 50 90C55.6667 90 60 85.6667 60 80V78.3333C61 78 62 77.6667 63 77L64.3333 78.3333C68.3333 82.3333 74.6667 82.3333 78.3333 78.3333C82.3333 74.3333 82.3333 68 78.3333 64.3333L77 63C77.3333 62 78 61 78.3333 60H80ZM73.3333 68.6667C74.6667 70 74.6667 72.3333 73.3333 73.6667C72 75 70 75 68.6667 73.6667L64 69C61 71.3333 57.3333 73 53.3333 73.3333V80C53.3333 82 52 83.3333 50 83.3333C48 83.3333 46.6667 82 46.6667 80V73C42.6667 72.3333 39 71 36 68.6667L31.3333 73.3333C30 74.6667 28 74.6667 26.6667 73.3333C25.3333 72 25.3333 70 26.6667 68.6667L31.3333 64C29 61 27.3333 57.3333 27 53.3333H20C18 53.3333 16.6667 52 16.6667 50C16.6667 48 18 46.6667 20 46.6667H27C27.6667 42.6667 29 39 31.3333 36L26.6667 31.3333C25.3333 30 25.3333 28 26.6667 26.6667C28 25.3333 30 25.3333 31.3333 26.6667L36 31.3333C39 29 42.6667 27.3333 46.6667 27V20C46.6667 18 48 16.6667 50 16.6667C52 16.6667 53.3333 18 53.3333 20V27C57.3333 27.6667 61 29 64 31.3333L68.6667 26.6667C70 25.3333 72 25.3333 73.3333 26.6667C74.6667 28 74.6667 30 73.3333 31.3333L68.6667 36C71 39 72.6667 42.6667 73 46.6667H80C82 46.6667 83.3333 48 83.3333 50C83.3333 52 82 53.3333 80 53.3333H73C72.3333 57.3333 71 61 68.6667 64L73.3333 68.6667Z" fill="currentColor"></path>
  </symbol>
</svg>